<svg width="165" height="256" viewBox="0 0 165 256" fill="none" xmlns="http://www.w3.org/2000/svg">
    <g clip-path="url(#clip0)">
        <path fill-rule="evenodd" clip-rule="evenodd"
              d="M90.0345 153.566C84.383 153.997 79.4574 153.538 73.8535 152.811C73.0078 152.698 73.2062 152.395 73.2229 151.235C73.2993 145.867 73.3102 123.943 75.3378 119.959C78.0394 114.644 86.0981 114.936 88.1425 120.282C89.2191 123.101 88.9694 122.379 89.1072 125.033C89.196 126.805 89.7783 128.41 90.1139 130.1C90.4963 132.16 92.7982 134.89 93.6799 135.01C95.1195 131.209 96.1211 123.287 94.8417 119.085C90.4812 104.765 69.3465 107.194 68.985 123.602C68.7403 128.916 68.5058 134.295 68.9424 139.606C69.1164 141.692 69.7073 152.607 70.3625 153.926C70.9967 155.205 72.2126 155.831 73.5945 155.908C77.8808 156.154 92.511 156.642 94.2696 153.708C93.6799 153.524 91.451 153.603 90.0345 153.566Z"
              fill="#865E42"/>
        <path fill-rule="evenodd" clip-rule="evenodd"
              d="M2.96362 91.4645C3.12249 86.7059 3.11011 85.9208 3.22704 81.1622C3.95505 51.6225 24.1099 24.028 51.1551 12.7762C61.2284 8.62172 72.0573 6.70794 82.9411 6.94808C102.13 7.39882 120.739 12.8797 134.731 26.4442C146.718 38.1319 153.023 54.2918 156.775 70.3465C157.601 73.7972 158.103 76.9338 158.624 80.4233L158.796 80.6191C159.937 83.9904 160.628 84.6092 161.964 86.1314C162.76 85.701 162.747 84.5871 163.109 83.8001C164.522 80.2552 164.024 73.1654 163.662 69.3286C161.938 51.0314 154.239 32.76 140.565 20.1653C124.732 5.58111 104.119 -0.0622893 82.9418 0.000517944C59.5262 0.0707143 38.4449 9.19069 22.6458 26.2687C15.645 33.8592 10.0252 42.6799 6.21223 52.2783C2.55519 61.487 0.536861 73.7621 0.308169 81.3673C0.14801 86.6874 -0.47323 95.0112 2.0906 100.555C3.31867 98.2791 2.88142 93.9454 2.96362 91.4645Z"
              fill="#865E42"/>
        <path fill-rule="evenodd" clip-rule="evenodd"
              d="M59.815 214.604C44.5951 218.178 30.5501 226.094 17.5378 234.833C10.8349 239.341 3.33889 244.04 0.129994 252.133C0.0435419 252.5 0.768593 255.705 1.55239 255.489C1.87123 255.683 2.3179 255.471 2.64265 255.386C3.9725 255.039 5.3284 253.794 6.62371 252.805C7.96501 251.782 8.94074 250.951 10.0886 249.687L15.9696 244.55C23.4764 237.896 31.6448 232.371 39.9538 226.894C45.2027 223.423 50.7569 220.519 56.3881 217.792C58.5795 216.726 60.8049 215.679 62.9142 214.443C62.4697 214.19 60.8469 214.521 59.815 214.604Z"
              fill="#865E42"/>
        <path fill-rule="evenodd" clip-rule="evenodd"
              d="M53.6527 102.72C54.188 91.2871 55.4148 68.7985 53.3257 57.7832C53.1526 56.8688 52.5153 49.8602 51.218 49.5296C47.9477 53.4144 46.0672 60.4691 44.51 64.4112C44.3058 67.3317 44.2986 70.1414 44.458 72.9308C44.2639 78.4024 44.238 82.6696 44.326 88.1542C44.8109 116.416 45.0159 144.688 45.4619 172.944C45.2786 185.531 45.0592 197.708 49.152 209.537C49.7834 208.205 49.7531 204.442 50.0532 201.894L53.6527 102.72Z"
              fill="#865E42"/>
        <path fill-rule="evenodd" clip-rule="evenodd"
              d="M35.9318 126.404C36.561 116.288 38.1421 95.0334 35.6063 84.7127C35.2413 83.246 34.423 81.1309 34.0665 81.0478C32.0915 83.4659 28.0983 91.3334 27.9618 92.8149C27.7251 95.4251 27.6819 96.8881 27.8016 99.3709C27.565 104.128 27.4848 108.892 27.5101 113.663C27.6437 138.136 27.6422 162.61 27.6956 187.077C27.3875 198.187 27.1891 208.681 30.6706 219.124C31.5244 217.798 31.2769 214.707 31.5791 212.498L35.9318 126.404Z"
              fill="#865E42"/>
        <path fill-rule="evenodd" clip-rule="evenodd"
              d="M20.3569 144.712C20.8123 135.526 22.0433 116.192 19.5192 106.769C19.1974 105.605 18.5004 103.996 18.1858 103.93C15.8968 106.254 14.1693 109.83 12.9347 112.444L12.7535 120.432C12.5948 124.719 12.576 129.012 12.649 133.309C13.0443 155.327 13.3792 177.346 13.6786 199.362C13.5242 209.422 13.2687 218.705 16.6502 228.406C17.2845 227.294 17.146 224.414 17.3933 222.419L20.3569 144.712Z"
              fill="#865E42"/>
        <path fill-rule="evenodd" clip-rule="evenodd"
              d="M6.98152 158.223C7.3785 149.718 8.53305 130.59 6.09465 121.658C5.81756 120.79 5.20999 119.519 4.93659 119.471C3.5432 120.831 0.506651 124.749 0.42297 125.805L0.125742 135.141C-0.0135422 139.213 -0.0286887 143.29 0.0391062 147.374C0.401356 167.967 0.918775 188.577 1.04365 209.175C0.903627 219.231 0.798335 228.253 3.68673 237.84C4.24017 236.496 4.12989 234.044 4.35285 232.145L6.98152 158.223Z"
              fill="#865E42"/>
        <path fill-rule="evenodd" clip-rule="evenodd"
              d="M104.247 214.604C119.467 218.178 133.512 226.094 146.524 234.833C153.226 239.341 160.723 244.04 163.931 252.133C164.018 252.5 163.294 255.705 162.509 255.489C162.189 255.683 161.744 255.471 161.419 255.386C160.089 255.039 158.733 253.794 157.438 252.805C156.097 251.782 155.122 250.951 153.973 249.687L148.093 244.55C140.585 237.896 132.417 232.371 124.108 226.894C118.858 223.423 113.305 220.519 107.674 217.792C105.482 216.726 103.257 215.679 101.147 214.443C101.592 214.19 103.215 214.521 104.247 214.604Z"
              fill="#865E42"/>
        <path fill-rule="evenodd" clip-rule="evenodd"
              d="M110.409 102.72C109.874 91.2871 108.647 68.7985 110.736 57.7832C110.909 56.8688 111.546 49.8602 112.844 49.5296C116.114 53.4144 117.995 60.4691 119.552 64.4112C119.755 67.3317 119.763 70.1414 119.604 72.9308C119.798 78.4024 119.824 82.6696 119.736 88.1542C119.251 116.416 119.046 144.688 118.6 172.944C118.783 185.531 119.003 197.708 114.909 209.537C114.278 208.205 114.309 204.442 114.009 201.894L110.409 102.72Z"
              fill="#865E42"/>
        <path fill-rule="evenodd" clip-rule="evenodd"
              d="M128.129 126.404C127.501 116.288 125.92 95.0334 128.456 84.7127C128.82 83.246 129.639 81.1309 129.995 81.0478C131.97 83.4659 135.964 91.3334 136.1 92.8149C136.337 95.4251 136.379 96.8881 136.261 99.3709C136.497 104.128 136.577 108.892 136.551 113.663C136.418 138.136 136.42 162.61 136.366 187.077C136.675 198.187 136.872 208.681 133.39 219.124C132.537 217.798 132.784 214.707 132.483 212.498L128.129 126.404Z"
              fill="#865E42"/>
        <path fill-rule="evenodd" clip-rule="evenodd"
              d="M143.705 144.712C143.249 135.526 142.019 116.192 144.542 106.769C144.864 105.605 145.562 103.996 145.876 103.93C148.165 106.254 149.892 109.83 151.126 112.444L151.307 120.432C151.466 124.719 151.484 129.012 151.412 133.309C151.017 155.327 150.683 177.346 150.383 199.362C150.538 209.422 150.793 218.705 147.411 228.406C146.777 227.294 146.916 224.414 146.668 222.419L143.705 144.712Z"
              fill="#865E42"/>
        <path fill-rule="evenodd" clip-rule="evenodd"
              d="M157.08 158.223C156.683 149.718 155.528 130.59 157.966 121.658C158.244 120.79 158.851 119.519 159.125 119.471C160.519 120.831 163.554 124.749 163.638 125.805L163.935 135.141C164.075 139.213 164.09 143.29 164.022 147.374C163.66 167.967 163.142 188.577 163.019 209.175C163.159 219.231 163.264 228.253 160.375 237.84C159.821 236.496 159.932 234.044 159.708 232.145L157.08 158.223Z"
              fill="#865E42"/>
    </g>
    <defs>
        <clipPath id="clip0">
            <rect width="164.061" height="255.569" fill="white"/>
        </clipPath>
    </defs>
</svg>
