<?xml version="1.0" standalone="no"?>
<!DOCTYPE svg PUBLIC "-//W3C//DTD SVG 20010904//EN"
 "http://www.w3.org/TR/2001/REC-SVG-20010904/DTD/svg10.dtd">
<svg version="1.0" xmlns="http://www.w3.org/2000/svg"
 width="1024.000000pt" height="1024.000000pt" viewBox="0 0 1024.000000 1024.000000"
 preserveAspectRatio="xMidYMid meet">
<metadata>
Created by potrace 1.11, written by Peter Selinger 2001-2013
</metadata>
<g transform="translate(0.000000,1024.000000) scale(0.100000,-0.100000)"
fill="#000000" stroke="none">
<path d="M4919 10235 c-2 -1 -40 -6 -84 -10 -44 -3 -91 -8 -105 -10 -86 -10
-129 -17 -155 -22 -16 -3 -38 -5 -47 -5 -10 0 -20 -4 -23 -9 -4 -5 -10 -7 -13
-5 -4 2 -61 -9 -127 -25 -107 -26 -131 -32 -170 -43 -5 -1 -37 -11 -70 -21
-33 -11 -62 -20 -65 -20 -3 -1 -14 -5 -25 -9 -11 -4 -33 -13 -50 -19 -215 -77
-523 -237 -700 -362 -61 -43 -190 -139 -195 -145 -3 -3 -30 -25 -60 -50 -102
-84 -280 -259 -370 -365 -24 -27 -46 -52 -49 -55 -11 -9 -104 -131 -167 -220
-123 -173 -264 -426 -347 -622 -34 -79 -103 -276 -112 -317 -2 -9 -10 -37 -18
-63 -8 -27 -13 -48 -10 -48 3 0 0 -7 -7 -15 -7 -8 -10 -15 -7 -15 3 0 1 -15
-4 -32 -5 -18 -12 -46 -15 -63 -3 -16 -10 -50 -15 -75 -13 -57 -15 -66 -24
-120 -4 -25 -9 -53 -11 -64 -2 -10 -6 -44 -10 -75 -3 -31 -9 -77 -13 -102 -4
-26 -7 -58 -6 -73 0 -14 -2 -26 -5 -26 -10 0 -16 -577 -6 -640 16 -108 30
-164 53 -228 l16 -43 15 33 c10 23 15 80 18 183 12 540 19 722 29 785 2 14 6
48 10 75 11 88 16 118 36 210 11 50 22 99 24 109 7 31 65 218 78 251 6 17 12
32 13 35 0 3 4 14 8 25 4 11 13 34 19 50 35 98 144 316 230 460 56 94 181 277
209 307 7 7 26 31 43 53 54 72 168 197 264 289 36 33 76 72 90 86 164 159 485
376 731 492 80 39 242 107 269 114 9 2 55 17 102 34 47 16 95 31 105 33 10 2
26 7 34 10 45 19 297 68 415 82 28 3 62 8 77 10 113 20 537 21 693 1 17 -2 64
-7 105 -11 41 -3 82 -8 90 -10 8 -2 29 -6 45 -9 115 -17 142 -22 170 -30 6 -2
28 -6 50 -11 66 -13 68 -13 125 -30 30 -8 64 -17 76 -20 11 -3 68 -21 125 -40
57 -20 109 -37 114 -39 6 -1 32 -12 59 -24 27 -12 51 -22 54 -22 7 0 236 -113
242 -119 3 -3 30 -19 60 -35 30 -17 60 -33 65 -38 6 -4 42 -29 80 -54 229
-152 453 -373 632 -624 127 -177 273 -451 352 -660 18 -47 37 -94 41 -105 13
-31 52 -139 54 -150 1 -5 14 -47 29 -92 24 -72 97 -342 111 -413 3 -14 11 -47
16 -75 18 -80 34 -170 45 -255 14 -96 116 -288 148 -277 10 3 53 114 64 166
27 114 12 486 -27 706 -5 28 -12 67 -14 87 -7 47 -41 197 -61 268 -9 30 -17
62 -20 70 -2 8 -11 38 -20 65 -10 28 -19 57 -20 65 -2 8 -4 16 -5 18 -2 1 -3
5 -4 10 -1 6 -11 31 -56 147 -24 62 -90 204 -138 295 -49 94 -224 370 -255
403 -7 6 -40 46 -74 87 -90 111 -236 255 -342 340 -24 19 -48 40 -55 45 -94
85 -382 263 -541 335 -38 17 -88 40 -110 50 -39 18 -167 67 -250 95 -121 41
-387 109 -470 120 -21 2 -45 7 -54 9 -20 6 -62 12 -181 25 -52 6 -113 13 -135
16 -43 7 -611 16 -616 10z"/>
<path d="M3843 8226 c-69 -102 -111 -195 -196 -431 l-51 -140 1 -675 c1 -653
1 -836 3 -862 1 -29 9 -534 15 -1013 3 -280 8 -652 11 -825 2 -173 7 -596 9
-940 3 -344 7 -661 9 -705 6 -115 26 -294 41 -375 3 -14 7 -38 10 -55 11 -57
37 -170 42 -185 3 -8 7 -21 9 -29 7 -34 38 -130 41 -127 6 5 14 48 18 96 17
183 22 280 40 820 6 179 15 433 20 570 3 69 8 190 10 270 3 80 7 192 9 250 3
58 7 186 11 285 3 99 8 230 10 290 7 181 17 441 30 820 5 170 13 381 20 565
13 321 16 400 20 470 10 197 18 472 19 637 1 101 4 183 7 183 4 0 3 18 -1 39
-4 22 -4 45 1 52 4 7 6 16 3 20 -2 4 -6 92 -9 196 -3 103 -7 213 -10 243 -7
84 -15 166 -20 191 -3 13 -7 41 -10 64 -6 37 -21 135 -30 195 -11 68 -33 127
-49 133 -6 3 -22 -9 -33 -27z"/>
<path d="M6305 8220 c-9 -16 -13 -30 -9 -30 4 0 2 -6 -4 -12 -6 -7 -10 -16
-10 -21 0 -4 -3 -26 -7 -50 -10 -65 -14 -88 -21 -142 -3 -27 -8 -59 -10 -70
-4 -19 -8 -52 -19 -150 -26 -235 -26 -839 0 -1385 9 -195 19 -442 30 -750 3
-85 7 -204 10 -265 3 -60 7 -189 11 -285 3 -96 7 -222 9 -280 2 -58 6 -172 9
-255 3 -82 8 -220 11 -305 4 -85 8 -209 10 -275 3 -66 7 -183 10 -260 3 -77 7
-196 10 -265 6 -167 18 -519 30 -830 3 -96 8 -223 10 -282 2 -59 6 -112 9
-117 4 -5 2 -12 -4 -16 -6 -4 -8 -11 -4 -16 3 -5 7 -31 9 -57 3 -26 7 -76 10
-112 2 -36 7 -74 9 -85 3 -11 5 -24 6 -30 3 -33 75 191 86 270 1 11 7 40 12
65 5 25 10 52 10 60 0 8 3 26 6 39 8 35 23 169 32 286 3 39 7 300 9 580 2 281
6 690 9 910 4 220 8 591 11 825 6 499 14 1068 20 1440 4 285 5 727 1 1090 l-2
225 -48 130 c-82 226 -128 328 -187 417 -29 46 -44 47 -64 8z"/>
<path d="M3158 6963 c-82 -121 -191 -336 -212 -417 -9 -34 -15 -117 -16 -227
-2 -96 -4 -232 -6 -304 -4 -160 -4 100 1 -2085 2 -1020 7 -1871 9 -1890 3 -19
8 -57 11 -85 3 -27 7 -61 9 -75 2 -14 7 -49 11 -77 11 -85 71 -307 84 -311 6
-2 11 2 12 10 0 7 2 22 5 33 4 22 10 94 19 255 3 58 8 141 10 185 3 44 7 134
10 200 3 66 8 158 10 205 10 192 16 300 20 385 3 50 7 137 10 195 11 230 14
279 20 390 10 201 14 282 20 405 3 66 8 161 11 210 2 50 6 131 9 180 3 50 7
133 10 185 2 52 7 154 10 225 4 72 8 164 11 205 2 41 6 125 9 185 3 61 7 144
10 185 2 41 7 122 10 180 4 58 8 128 10 155 26 347 27 1067 1 1205 -4 22 -8
47 -22 142 -5 36 -44 149 -59 171 -11 16 -14 14 -37 -20z"/>
<path d="M7011 6987 c-27 -33 -65 -162 -77 -260 -3 -23 -7 -52 -9 -63 -19 -91
-26 -675 -11 -954 4 -80 9 -174 11 -210 2 -36 6 -99 9 -140 6 -82 15 -242 21
-390 3 -52 7 -131 9 -175 3 -44 8 -134 11 -200 3 -66 8 -151 10 -190 2 -38 6
-128 10 -200 3 -71 8 -159 10 -195 2 -36 6 -123 10 -195 3 -71 8 -168 11 -215
2 -47 6 -130 9 -185 2 -55 7 -145 10 -200 3 -55 7 -143 10 -195 2 -52 7 -149
11 -215 4 -66 7 -171 8 -232 0 -62 3 -113 6 -113 3 0 6 -17 6 -38 0 -35 8
-200 20 -422 3 -52 7 -131 9 -175 12 -220 21 -321 32 -339 10 -15 57 137 76
244 3 14 10 52 16 86 11 59 15 91 27 214 11 115 13 191 12 375 -1 250 0 2390
2 3035 1 483 -6 1008 -14 1077 -3 18 -16 58 -30 88 -14 30 -22 55 -19 55 3 0
1 6 -5 13 -5 6 -33 57 -62 111 -81 153 -126 218 -139 203z"/>
<path d="M2524 6057 c-31 -31 -105 -149 -149 -237 l-37 -74 -6 -191 c-9 -337
-6 -755 13 -1805 10 -512 16 -1030 19 -1540 2 -283 6 -533 9 -555 4 -22 9 -65
13 -95 10 -91 18 -144 33 -215 14 -70 17 -81 40 -160 12 -38 21 -72 21 -75 0
-3 5 2 10 11 15 26 20 88 35 469 3 74 7 182 10 240 2 58 7 179 10 270 3 91 8
217 11 280 2 63 6 176 9 250 2 74 7 191 10 260 3 69 7 190 10 270 3 80 7 199
10 265 3 66 7 181 10 255 3 74 7 189 10 255 3 66 8 188 11 270 6 177 11 298
19 455 11 239 15 391 16 585 1 253 -6 389 -27 545 -3 25 -7 54 -8 65 -10 74
-60 226 -75 224 -3 0 -16 -10 -27 -22z"/>
<path d="M7646 6073 c-12 -13 -35 -71 -51 -132 -21 -82 -27 -123 -43 -306 -9
-106 -8 -710 2 -900 10 -211 14 -289 20 -460 3 -82 9 -211 12 -285 3 -74 7
-184 9 -245 2 -60 6 -175 9 -255 4 -80 8 -206 11 -280 3 -74 8 -191 11 -260 2
-69 7 -181 9 -250 3 -69 7 -186 10 -260 16 -426 21 -558 30 -800 13 -360 24
-513 39 -527 9 -10 79 254 91 342 3 22 8 65 11 95 3 30 8 69 11 85 2 17 6 219
8 450 5 549 15 1254 31 2165 8 443 9 1216 2 1391 -4 94 -8 113 -38 175 -63
131 -166 275 -184 257z"/>
<path d="M4995 5842 c-3 -3 -12 -7 -20 -9 -8 -2 -21 -4 -28 -6 -43 -9 -149
-73 -194 -116 -101 -100 -148 -196 -168 -345 -14 -110 -21 -562 -11 -676 3
-25 7 -92 11 -150 3 -58 8 -123 11 -145 3 -22 7 -69 9 -105 14 -184 31 -237
88 -267 73 -37 563 -35 759 3 15 3 30 5 33 5 13 -3 106 51 100 57 -3 4 -135 8
-293 8 -158 1 -300 4 -317 7 -16 2 -57 8 -90 12 -33 4 -69 8 -80 10 -11 1 -28
3 -39 4 -18 1 -18 13 -12 344 9 453 20 672 40 792 3 17 8 50 11 75 29 207 239
315 426 219 85 -43 145 -163 154 -303 3 -47 12 -111 21 -143 8 -32 17 -69 20
-82 9 -44 46 -106 91 -150 40 -40 46 -43 55 -27 6 10 11 23 12 29 1 7 8 37 14
67 7 30 14 66 16 80 3 14 5 25 6 25 6 0 13 128 13 230 0 138 -15 204 -69 303
-64 118 -154 194 -281 237 -55 19 -89 23 -175 23 -59 0 -110 -3 -113 -6z"/>
<path d="M1950 5385 c-108 -137 -111 -145 -118 -308 -10 -224 -2 -1772 9
-1772 1 0 7 -365 13 -905 13 -1050 17 -1255 26 -1255 1 0 4 -16 6 -35 5 -39
31 -183 38 -215 21 -96 40 -155 46 -148 14 14 22 140 35 513 5 159 11 323 20
560 3 74 8 198 10 275 5 160 12 367 20 570 3 77 7 201 10 275 3 74 8 203 11
285 3 83 7 204 9 270 2 66 6 192 9 280 3 88 8 199 11 246 22 351 23 920 1
1094 -2 17 -7 58 -11 92 -3 33 -13 87 -21 120 -8 32 -16 64 -17 71 -2 7 -9 18
-15 24 -7 7 -12 18 -12 25 0 27 -22 10 -80 -62z"/>
<path d="M8172 5447 c-25 -29 -44 -103 -67 -252 -30 -195 -34 -643 -10 -1125
7 -142 16 -358 20 -495 8 -223 14 -415 20 -555 3 -74 7 -209 10 -300 4 -91 8
-226 11 -300 10 -278 13 -369 18 -530 3 -91 8 -221 11 -290 3 -69 8 -197 10
-285 16 -455 22 -555 37 -570 10 -11 44 119 64 244 3 18 8 43 10 55 4 22 13
88 19 146 12 115 17 326 21 910 5 659 7 798 19 1405 13 643 14 713 15 985 0
151 -2 352 -5 445 -11 313 -6 284 -58 362 -26 39 -66 92 -90 118 -36 39 -45
44 -55 32z"/>
<path d="M4246 1663 c-1 -1 -13 -4 -26 -7 -23 -4 -102 -23 -125 -30 -5 -1 -30
-8 -55 -15 -89 -25 -285 -94 -364 -128 -45 -19 -85 -36 -91 -37 -48 -12 -456
-219 -557 -283 -21 -12 -40 -23 -42 -23 -5 0 -144 -84 -206 -125 -368 -239
-531 -350 -538 -367 -2 -4 -8 -8 -13 -8 -14 0 -156 -125 -213 -189 -51 -56
-136 -173 -136 -188 0 -7 -3 -13 -7 -13 -13 0 -47 -93 -45 -123 4 -49 35 -102
61 -105 26 -4 121 36 121 50 0 4 5 8 10 8 5 0 18 8 28 17 10 10 36 31 58 48
21 16 60 51 86 76 26 26 62 59 80 74 37 31 155 134 172 150 11 11 209 178 236
199 181 143 715 516 738 516 6 0 12 3 14 8 3 8 98 69 193 124 108 63 197 110
447 234 135 68 249 127 251 131 4 7 -70 13 -77 6z"/>
<path d="M5885 1654 c11 -8 148 -79 305 -158 157 -78 344 -178 415 -221 128
-77 459 -294 574 -377 33 -24 69 -50 81 -58 44 -29 246 -184 320 -244 111 -90
120 -98 158 -134 18 -17 36 -32 39 -32 3 0 15 -10 27 -22 12 -13 50 -48 86
-78 35 -30 84 -75 109 -98 25 -24 79 -71 118 -103 129 -106 191 -130 228 -89
10 11 15 20 11 20 -4 0 -2 8 3 18 23 43 19 81 -15 148 -76 148 -194 281 -372
417 -84 64 -449 313 -523 357 -14 8 -90 54 -170 101 -198 119 -455 256 -589
313 -25 11 -67 29 -95 41 -45 19 -101 42 -160 65 -53 21 -90 35 -95 36 -19 3
-67 18 -75 23 -5 3 -14 6 -20 8 -5 1 -50 13 -100 28 -49 14 -94 27 -100 29
-11 3 -91 15 -145 22 -33 4 -34 3 -15 -12z"/>
</g>
</svg>
